<svg aria-hidden="true" style="position: absolute; width: 0; height: 0; overflow: hidden;" version="1.1" xmlns="http://www.w3.org/2000/svg" xmlns:xlink="http://www.w3.org/1999/xlink">
<defs>
<symbol id="icon-sun" viewBox="0 0 32 32">
<path d="M16 25.293c-5.132 0-9.293-4.161-9.293-9.293s4.161-9.293 9.293-9.293c5.133 0 9.293 4.161 9.293 9.293s-4.161 9.293-9.293 9.293zM27.197 18.667l4.803-2.667-4.803-2.667v5.333zM4.803 13.333l-4.803 2.667 4.803 2.667v-5.333zM16 32l2.667-4.803h-5.333l2.667 4.803zM16 0l-2.667 4.803h5.333l-2.667-4.803zM6.197 22.032l-1.511 5.282 5.282-1.511-3.771-3.771zM22.032 6.197l3.771 3.771 1.511-5.282-5.282 1.51zM4.686 4.686l1.511 5.282 3.771-3.771-5.282-1.511zM22.032 25.803l5.282 1.511-1.511-5.282-3.771 3.771z"></path>
</symbol>
<symbol id="icon-moon" viewBox="0 0 21 32">
<path d="M18.575 0.015c-0.035 0.002-0.337 0.020-0.675 0.035s-0.782 0.037-0.99 0.053c-0.21 0.012-0.773 0.035-1.25 0.048-1.037 0.030-1.615 0.078-2.36 0.2-3.883 0.63-7.38 2.683-9.863 5.787-1.107 1.388-2.010 3.037-2.587 4.73-0.41 1.197-0.66 2.38-0.792 3.735-0.063 0.65-0.063 2.145 0 2.795 0.203 2.080 0.715 3.89 1.607 5.678 0.635 1.27 1.39 2.385 2.353 3.475 0.327 0.37 1.088 1.12 1.457 1.44 1.39 1.198 2.89 2.105 4.575 2.773 0.455 0.18 1.16 0.418 1.518 0.512 0.463 0.125 0.568 0.15 0.895 0.223 1.035 0.223 1.832 0.315 3.050 0.352 0.78 0.023 1.42 0.052 2.262 0.102 0.688 0.040 1.938 0.055 2.188 0.027 0.398-0.050 0.538-0.12 0.538-0.277 0-0.177-0.212-0.313-0.863-0.552-0.42-0.155-0.725-0.313-1.113-0.575-2.215-1.508-4.598-4.838-5.905-8.262-0.898-2.348-1.328-4.78-1.223-6.92 0.085-1.725 0.365-3.205 0.92-4.865 1.168-3.498 3.47-7 5.795-8.81 0.538-0.417 0.985-0.672 1.55-0.88 0.593-0.218 0.837-0.372 0.837-0.527 0-0.242-0.29-0.313-1.275-0.307-0.323 0.003-0.615 0.007-0.65 0.013z"></path>
</symbol>
</defs>
</svg>
